<?xml version="1.0" encoding="utf-8" standalone="no"?>
<!DOCTYPE svg PUBLIC "-//W3C//DTD SVG 1.1//EN"
  "http://www.w3.org/Graphics/SVG/1.1/DTD/svg11.dtd">
<svg xmlns:xlink="http://www.w3.org/1999/xlink" width="360pt" height="396pt" viewBox="0 0 360 396" xmlns="http://www.w3.org/2000/svg" version="1.1">
 <metadata>
  <rdf:RDF xmlns:dc="http://purl.org/dc/elements/1.1/" xmlns:cc="http://creativecommons.org/ns#" xmlns:rdf="http://www.w3.org/1999/02/22-rdf-syntax-ns#">
   <cc:Work>
    <dc:type rdf:resource="http://purl.org/dc/dcmitype/StillImage"/>
    <dc:date>2026-08-12T06:24:21.966920</dc:date>
    <dc:format>image/svg+xml</dc:format>
    <dc:creator>
     <cc:Agent>
      <dc:title>Matplotlib v3.10.5, https://matplotlib.org/</dc:title>
     </cc:Agent>
    </dc:creator>
   </cc:Work>
  </rdf:RDF>
 </metadata>
 <defs>
  <style type="text/css">*{stroke-linejoin: round; stroke-linecap: butt}</style>
 </defs>
 <g id="figure_1">
  <g id="patch_1">
   <path d="M 0 396 
L 360 396 
L 360 0 
L 0 0 
z
" style="fill: #ffffff"/>
  </g>
  <g id="axes_1">
   <g id="patch_2">
    <path d="M 49.99 362.952 
L 350.28 362.952 
L 350.28 22.2 
L 49.99 22.2 
z
" style="fill: #ffffff"/>
   </g>
   <g id="matplotlib.axis_1">
    <g id="xtick_1">
     <g id="line2d_1">
      <defs>
       <path id="mefe34f359e" d="M 0 0 
L 0 3.5 
" style="stroke: #000000; stroke-width: 0.8"/>
      </defs>
      <g>
       <use xlink:href="#mefe34f359e" x="70.595811" y="362.952" style="fill: #4682b4; stroke: #000000; stroke-width: 0.8"/>
      </g>
     </g>
     <g id="text_1">
      <text style="font-size: 9px; font-family: 'Arial', 'Helvetica', 'DejaVu Sans', 'Bitstream Vera Sans', sans-serif; text-anchor: middle; fill: #4682b4" x="70.595811" y="376.394031" transform="rotate(-0 70.595811 376.394031)">0.5</text>
     </g>
    </g>
    <g id="xtick_2">
     <g id="line2d_2">
      <g>
       <use xlink:href="#mefe34f359e" x="107.445782" y="362.952" style="fill: #4682b4; stroke: #000000; stroke-width: 0.8"/>
      </g>
     </g>
     <g id="text_2">
      <text style="font-size: 9px; font-family: 'Arial', 'Helvetica', 'DejaVu Sans', 'Bitstream Vera Sans', sans-serif; text-anchor: middle; fill: #4682b4" x="107.445782" y="376.394031" transform="rotate(-0 107.445782 376.394031)">0.4</text>
     </g>
    </g>
    <g id="xtick_3">
     <g id="line2d_3">
      <g>
       <use xlink:href="#mefe34f359e" x="144.295752" y="362.952" style="fill: #4682b4; stroke: #000000; stroke-width: 0.8"/>
      </g>
     </g>
     <g id="text_3">
      <text style="font-size: 9px; font-family: 'Arial', 'Helvetica', 'DejaVu Sans', 'Bitstream Vera Sans', sans-serif; text-anchor: middle; fill: #4682b4" x="144.295752" y="376.394031" transform="rotate(-0 144.295752 376.394031)">0.3</text>
     </g>
    </g>
    <g id="xtick_4">
     <g id="line2d_4">
      <g>
       <use xlink:href="#mefe34f359e" x="181.145723" y="362.952" style="fill: #4682b4; stroke: #000000; stroke-width: 0.8"/>
      </g>
     </g>
     <g id="text_4">
      <text style="font-size: 9px; font-family: 'Arial', 'Helvetica', 'DejaVu Sans', 'Bitstream Vera Sans', sans-serif; text-anchor: middle; fill: #4682b4" x="181.145723" y="376.394031" transform="rotate(-0 181.145723 376.394031)">0.2</text>
     </g>
    </g>
    <g id="xtick_5">
     <g id="line2d_5">
      <g>
       <use xlink:href="#mefe34f359e" x="217.995693" y="362.952" style="fill: #4682b4; stroke: #000000; stroke-width: 0.8"/>
      </g>
     </g>
     <g id="text_5">
      <text style="font-size: 9px; font-family: 'Arial', 'Helvetica', 'DejaVu Sans', 'Bitstream Vera Sans', sans-serif; text-anchor: middle; fill: #4682b4" x="217.995693" y="376.394031" transform="rotate(-0 217.995693 376.394031)">0.1</text>
     </g>
    </g>
    <g id="xtick_6">
     <g id="line2d_6">
      <defs>
       <path id="mde28fe242d" d="M 0 0 
L 0 3.5 
" style="stroke: #000000; stroke-width: 0.8"/>
      </defs>
      <g>
       <use xlink:href="#mde28fe242d" x="254.845664" y="362.952" style="stroke: #000000; stroke-width: 0.8"/>
      </g>
     </g>
     <g id="text_6">
      <text style="font-size: 9px; font-family: 'Arial', 'Helvetica', 'DejaVu Sans', 'Bitstream Vera Sans', sans-serif; text-anchor: middle" x="254.845664" y="376.394031" transform="rotate(-0 254.845664 376.394031)">0</text>
     </g>
    </g>
    <g id="xtick_7">
     <g id="line2d_7">
      <defs>
       <path id="m84621cc406" d="M 0 0 
L 0 3.5 
" style="stroke: #000000; stroke-width: 0.8"/>
      </defs>
      <g>
       <use xlink:href="#m84621cc406" x="291.695634" y="362.952" style="fill: #ff6347; stroke: #000000; stroke-width: 0.8"/>
      </g>
     </g>
     <g id="text_7">
      <text style="font-size: 9px; font-family: 'Arial', 'Helvetica', 'DejaVu Sans', 'Bitstream Vera Sans', sans-serif; text-anchor: middle; fill: #ff6347" x="291.695634" y="376.394031" transform="rotate(-0 291.695634 376.394031)">0.1</text>
     </g>
    </g>
    <g id="xtick_8">
     <g id="line2d_8">
      <g>
       <use xlink:href="#m84621cc406" x="328.545605" y="362.952" style="fill: #ff6347; stroke: #000000; stroke-width: 0.8"/>
      </g>
     </g>
     <g id="text_8">
      <text style="font-size: 9px; font-family: 'Arial', 'Helvetica', 'DejaVu Sans', 'Bitstream Vera Sans', sans-serif; text-anchor: middle; fill: #ff6347" x="328.545605" y="376.394031" transform="rotate(-0 328.545605 376.394031)">0.2</text>
     </g>
    </g>
   </g>
   <g id="matplotlib.axis_2">
    <g id="ytick_1">
     <g id="line2d_9">
      <defs>
       <path id="m3a7f3b37f8" d="M 0 0 
L -3.5 0 
" style="stroke: #000000; stroke-width: 0.8"/>
      </defs>
      <g>
       <use xlink:href="#m3a7f3b37f8" x="49.99" y="359.84011" style="stroke: #000000; stroke-width: 0.8"/>
      </g>
     </g>
     <g id="text_9">
      <text style="font-size: 9px; font-family: 'Arial', 'Helvetica', 'DejaVu Sans', 'Bitstream Vera Sans', sans-serif; text-anchor: end" x="42.99" y="363.061125" transform="rotate(-0 42.99 363.061125)">38</text>
     </g>
    </g>
    <g id="ytick_2">
     <g id="line2d_10">
      <g>
       <use xlink:href="#m3a7f3b37f8" x="49.99" y="352.060384" style="stroke: #000000; stroke-width: 0.8"/>
      </g>
     </g>
     <g id="text_10">
      <text style="font-size: 9px; font-family: 'Arial', 'Helvetica', 'DejaVu Sans', 'Bitstream Vera Sans', sans-serif; text-anchor: end" x="42.99" y="355.281399" transform="rotate(-0 42.99 355.281399)">9</text>
     </g>
    </g>
    <g id="ytick_3">
     <g id="line2d_11">
      <g>
       <use xlink:href="#m3a7f3b37f8" x="49.99" y="344.280658" style="stroke: #000000; stroke-width: 0.8"/>
      </g>
     </g>
     <g id="text_11">
      <text style="font-size: 9px; font-family: 'Arial', 'Helvetica', 'DejaVu Sans', 'Bitstream Vera Sans', sans-serif; text-anchor: end" x="42.99" y="347.501673" transform="rotate(-0 42.99 347.501673)">2</text>
     </g>
    </g>
    <g id="ytick_4">
     <g id="line2d_12">
      <g>
       <use xlink:href="#m3a7f3b37f8" x="49.99" y="336.500932" style="stroke: #000000; stroke-width: 0.8"/>
      </g>
     </g>
     <g id="text_12">
      <text style="font-size: 9px; font-family: 'Arial', 'Helvetica', 'DejaVu Sans', 'Bitstream Vera Sans', sans-serif; text-anchor: end" x="42.99" y="339.721947" transform="rotate(-0 42.99 339.721947)">4</text>
     </g>
    </g>
    <g id="ytick_5">
     <g id="line2d_13">
      <g>
       <use xlink:href="#m3a7f3b37f8" x="49.99" y="328.721205" style="stroke: #000000; stroke-width: 0.8"/>
      </g>
     </g>
     <g id="text_13">
      <text style="font-size: 9px; font-family: 'Arial', 'Helvetica', 'DejaVu Sans', 'Bitstream Vera Sans', sans-serif; text-anchor: end" x="42.99" y="331.942221" transform="rotate(-0 42.99 331.942221)">16</text>
     </g>
    </g>
    <g id="ytick_6">
     <g id="line2d_14">
      <g>
       <use xlink:href="#m3a7f3b37f8" x="49.99" y="320.941479" style="stroke: #000000; stroke-width: 0.8"/>
      </g>
     </g>
     <g id="text_14">
      <text style="font-size: 9px; font-family: 'Arial', 'Helvetica', 'DejaVu Sans', 'Bitstream Vera Sans', sans-serif; text-anchor: end" x="42.99" y="324.162495" transform="rotate(-0 42.99 324.162495)">12</text>
     </g>
    </g>
    <g id="ytick_7">
     <g id="line2d_15">
      <g>
       <use xlink:href="#m3a7f3b37f8" x="49.99" y="313.161753" style="stroke: #000000; stroke-width: 0.8"/>
      </g>
     </g>
     <g id="text_15">
      <text style="font-size: 9px; font-family: 'Arial', 'Helvetica', 'DejaVu Sans', 'Bitstream Vera Sans', sans-serif; text-anchor: end" x="42.99" y="316.382769" transform="rotate(-0 42.99 316.382769)">13</text>
     </g>
    </g>
    <g id="ytick_8">
     <g id="line2d_16">
      <g>
       <use xlink:href="#m3a7f3b37f8" x="49.99" y="305.382027" style="stroke: #000000; stroke-width: 0.8"/>
      </g>
     </g>
     <g id="text_16">
      <text style="font-size: 9px; font-family: 'Arial', 'Helvetica', 'DejaVu Sans', 'Bitstream Vera Sans', sans-serif; text-anchor: end" x="42.99" y="308.603043" transform="rotate(-0 42.99 308.603043)">40</text>
     </g>
    </g>
    <g id="ytick_9">
     <g id="line2d_17">
      <g>
       <use xlink:href="#m3a7f3b37f8" x="49.99" y="297.602301" style="stroke: #000000; stroke-width: 0.8"/>
      </g>
     </g>
     <g id="text_17">
      <text style="font-size: 9px; font-family: 'Arial', 'Helvetica', 'DejaVu Sans', 'Bitstream Vera Sans', sans-serif; text-anchor: end" x="42.99" y="300.823317" transform="rotate(-0 42.99 300.823317)">8</text>
     </g>
    </g>
    <g id="ytick_10">
     <g id="line2d_18">
      <g>
       <use xlink:href="#m3a7f3b37f8" x="49.99" y="289.822575" style="stroke: #000000; stroke-width: 0.8"/>
      </g>
     </g>
     <g id="text_18">
      <text style="font-size: 9px; font-family: 'Arial', 'Helvetica', 'DejaVu Sans', 'Bitstream Vera Sans', sans-serif; text-anchor: end" x="42.99" y="293.043591" transform="rotate(-0 42.99 293.043591)">28</text>
     </g>
    </g>
    <g id="ytick_11">
     <g id="line2d_19">
      <g>
       <use xlink:href="#m3a7f3b37f8" x="49.99" y="282.042849" style="stroke: #000000; stroke-width: 0.8"/>
      </g>
     </g>
     <g id="text_19">
      <text style="font-size: 9px; font-family: 'Arial', 'Helvetica', 'DejaVu Sans', 'Bitstream Vera Sans', sans-serif; text-anchor: end" x="42.99" y="285.263865" transform="rotate(-0 42.99 285.263865)">19</text>
     </g>
    </g>
    <g id="ytick_12">
     <g id="line2d_20">
      <g>
       <use xlink:href="#m3a7f3b37f8" x="49.99" y="274.263123" style="stroke: #000000; stroke-width: 0.8"/>
      </g>
     </g>
     <g id="text_20">
      <text style="font-size: 9px; font-family: 'Arial', 'Helvetica', 'DejaVu Sans', 'Bitstream Vera Sans', sans-serif; text-anchor: end" x="42.99" y="277.484139" transform="rotate(-0 42.99 277.484139)">35</text>
     </g>
    </g>
    <g id="ytick_13">
     <g id="line2d_21">
      <g>
       <use xlink:href="#m3a7f3b37f8" x="49.99" y="266.483397" style="stroke: #000000; stroke-width: 0.8"/>
      </g>
     </g>
     <g id="text_21">
      <text style="font-size: 9px; font-family: 'Arial', 'Helvetica', 'DejaVu Sans', 'Bitstream Vera Sans', sans-serif; text-anchor: end" x="42.99" y="269.704413" transform="rotate(-0 42.99 269.704413)">10</text>
     </g>
    </g>
    <g id="ytick_14">
     <g id="line2d_22">
      <g>
       <use xlink:href="#m3a7f3b37f8" x="49.99" y="258.703671" style="stroke: #000000; stroke-width: 0.8"/>
      </g>
     </g>
     <g id="text_22">
      <text style="font-size: 9px; font-family: 'Arial', 'Helvetica', 'DejaVu Sans', 'Bitstream Vera Sans', sans-serif; text-anchor: end" x="42.99" y="261.924687" transform="rotate(-0 42.99 261.924687)">37</text>
     </g>
    </g>
    <g id="ytick_15">
     <g id="line2d_23">
      <g>
       <use xlink:href="#m3a7f3b37f8" x="49.99" y="250.923945" style="stroke: #000000; stroke-width: 0.8"/>
      </g>
     </g>
     <g id="text_23">
      <text style="font-size: 9px; font-family: 'Arial', 'Helvetica', 'DejaVu Sans', 'Bitstream Vera Sans', sans-serif; text-anchor: end" x="42.99" y="254.144961" transform="rotate(-0 42.99 254.144961)">30</text>
     </g>
    </g>
    <g id="ytick_16">
     <g id="line2d_24">
      <g>
       <use xlink:href="#m3a7f3b37f8" x="49.99" y="243.144219" style="stroke: #000000; stroke-width: 0.8"/>
      </g>
     </g>
     <g id="text_24">
      <text style="font-size: 9px; font-family: 'Arial', 'Helvetica', 'DejaVu Sans', 'Bitstream Vera Sans', sans-serif; text-anchor: end" x="42.99" y="246.365235" transform="rotate(-0 42.99 246.365235)">3</text>
     </g>
    </g>
    <g id="ytick_17">
     <g id="line2d_25">
      <g>
       <use xlink:href="#m3a7f3b37f8" x="49.99" y="235.364493" style="stroke: #000000; stroke-width: 0.8"/>
      </g>
     </g>
     <g id="text_25">
      <text style="font-size: 9px; font-family: 'Arial', 'Helvetica', 'DejaVu Sans', 'Bitstream Vera Sans', sans-serif; text-anchor: end" x="42.99" y="238.585509" transform="rotate(-0 42.99 238.585509)">41</text>
     </g>
    </g>
    <g id="ytick_18">
     <g id="line2d_26">
      <g>
       <use xlink:href="#m3a7f3b37f8" x="49.99" y="227.584767" style="stroke: #000000; stroke-width: 0.8"/>
      </g>
     </g>
     <g id="text_26">
      <text style="font-size: 9px; font-family: 'Arial', 'Helvetica', 'DejaVu Sans', 'Bitstream Vera Sans', sans-serif; text-anchor: end" x="42.99" y="230.805783" transform="rotate(-0 42.99 230.805783)">15</text>
     </g>
    </g>
    <g id="ytick_19">
     <g id="line2d_27">
      <g>
       <use xlink:href="#m3a7f3b37f8" x="49.99" y="219.805041" style="stroke: #000000; stroke-width: 0.8"/>
      </g>
     </g>
     <g id="text_27">
      <text style="font-size: 9px; font-family: 'Arial', 'Helvetica', 'DejaVu Sans', 'Bitstream Vera Sans', sans-serif; text-anchor: end" x="42.99" y="223.026057" transform="rotate(-0 42.99 223.026057)">25</text>
     </g>
    </g>
    <g id="ytick_20">
     <g id="line2d_28">
      <g>
       <use xlink:href="#m3a7f3b37f8" x="49.99" y="212.025315" style="stroke: #000000; stroke-width: 0.8"/>
      </g>
     </g>
     <g id="text_28">
      <text style="font-size: 9px; font-family: 'Arial', 'Helvetica', 'DejaVu Sans', 'Bitstream Vera Sans', sans-serif; text-anchor: end" x="42.99" y="215.246331" transform="rotate(-0 42.99 215.246331)">7</text>
     </g>
    </g>
    <g id="ytick_21">
     <g id="line2d_29">
      <g>
       <use xlink:href="#m3a7f3b37f8" x="49.99" y="204.245589" style="stroke: #000000; stroke-width: 0.8"/>
      </g>
     </g>
     <g id="text_29">
      <text style="font-size: 9px; font-family: 'Arial', 'Helvetica', 'DejaVu Sans', 'Bitstream Vera Sans', sans-serif; text-anchor: end" x="42.99" y="207.466605" transform="rotate(-0 42.99 207.466605)">18</text>
     </g>
    </g>
    <g id="ytick_22">
     <g id="line2d_30">
      <g>
       <use xlink:href="#m3a7f3b37f8" x="49.99" y="196.465863" style="stroke: #000000; stroke-width: 0.8"/>
      </g>
     </g>
     <g id="text_30">
      <text style="font-size: 9px; font-family: 'Arial', 'Helvetica', 'DejaVu Sans', 'Bitstream Vera Sans', sans-serif; text-anchor: end" x="42.99" y="199.686879" transform="rotate(-0 42.99 199.686879)">29</text>
     </g>
    </g>
    <g id="ytick_23">
     <g id="line2d_31">
      <g>
       <use xlink:href="#m3a7f3b37f8" x="49.99" y="188.686137" style="stroke: #000000; stroke-width: 0.8"/>
      </g>
     </g>
     <g id="text_31">
      <text style="font-size: 9px; font-family: 'Arial', 'Helvetica', 'DejaVu Sans', 'Bitstream Vera Sans', sans-serif; text-anchor: end" x="42.99" y="191.907153" transform="rotate(-0 42.99 191.907153)">0</text>
     </g>
    </g>
    <g id="ytick_24">
     <g id="line2d_32">
      <g>
       <use xlink:href="#m3a7f3b37f8" x="49.99" y="180.906411" style="stroke: #000000; stroke-width: 0.8"/>
      </g>
     </g>
     <g id="text_32">
      <text style="font-size: 9px; font-family: 'Arial', 'Helvetica', 'DejaVu Sans', 'Bitstream Vera Sans', sans-serif; text-anchor: end" x="42.99" y="184.127427" transform="rotate(-0 42.99 184.127427)">20</text>
     </g>
    </g>
    <g id="ytick_25">
     <g id="line2d_33">
      <g>
       <use xlink:href="#m3a7f3b37f8" x="49.99" y="173.126685" style="stroke: #000000; stroke-width: 0.8"/>
      </g>
     </g>
     <g id="text_33">
      <text style="font-size: 9px; font-family: 'Arial', 'Helvetica', 'DejaVu Sans', 'Bitstream Vera Sans', sans-serif; text-anchor: end" x="42.99" y="176.347701" transform="rotate(-0 42.99 176.347701)">5</text>
     </g>
    </g>
    <g id="ytick_26">
     <g id="line2d_34">
      <g>
       <use xlink:href="#m3a7f3b37f8" x="49.99" y="165.346959" style="stroke: #000000; stroke-width: 0.8"/>
      </g>
     </g>
     <g id="text_34">
      <text style="font-size: 9px; font-family: 'Arial', 'Helvetica', 'DejaVu Sans', 'Bitstream Vera Sans', sans-serif; text-anchor: end" x="42.99" y="168.567975" transform="rotate(-0 42.99 168.567975)">24</text>
     </g>
    </g>
    <g id="ytick_27">
     <g id="line2d_35">
      <g>
       <use xlink:href="#m3a7f3b37f8" x="49.99" y="157.567233" style="stroke: #000000; stroke-width: 0.8"/>
      </g>
     </g>
     <g id="text_35">
      <text style="font-size: 9px; font-family: 'Arial', 'Helvetica', 'DejaVu Sans', 'Bitstream Vera Sans', sans-serif; text-anchor: end" x="42.99" y="160.788249" transform="rotate(-0 42.99 160.788249)">27</text>
     </g>
    </g>
    <g id="ytick_28">
     <g id="line2d_36">
      <g>
       <use xlink:href="#m3a7f3b37f8" x="49.99" y="149.787507" style="stroke: #000000; stroke-width: 0.8"/>
      </g>
     </g>
     <g id="text_36">
      <text style="font-size: 9px; font-family: 'Arial', 'Helvetica', 'DejaVu Sans', 'Bitstream Vera Sans', sans-serif; text-anchor: end" x="42.99" y="153.008522" transform="rotate(-0 42.99 153.008522)">33</text>
     </g>
    </g>
    <g id="ytick_29">
     <g id="line2d_37">
      <g>
       <use xlink:href="#m3a7f3b37f8" x="49.99" y="142.007781" style="stroke: #000000; stroke-width: 0.8"/>
      </g>
     </g>
     <g id="text_37">
      <text style="font-size: 9px; font-family: 'Arial', 'Helvetica', 'DejaVu Sans', 'Bitstream Vera Sans', sans-serif; text-anchor: end" x="42.99" y="145.228796" transform="rotate(-0 42.99 145.228796)">43</text>
     </g>
    </g>
    <g id="ytick_30">
     <g id="line2d_38">
      <g>
       <use xlink:href="#m3a7f3b37f8" x="49.99" y="134.228055" style="stroke: #000000; stroke-width: 0.8"/>
      </g>
     </g>
     <g id="text_38">
      <text style="font-size: 9px; font-family: 'Arial', 'Helvetica', 'DejaVu Sans', 'Bitstream Vera Sans', sans-serif; text-anchor: end" x="42.99" y="137.44907" transform="rotate(-0 42.99 137.44907)">23</text>
     </g>
    </g>
    <g id="ytick_31">
     <g id="line2d_39">
      <g>
       <use xlink:href="#m3a7f3b37f8" x="49.99" y="126.448329" style="stroke: #000000; stroke-width: 0.8"/>
      </g>
     </g>
     <g id="text_39">
      <text style="font-size: 9px; font-family: 'Arial', 'Helvetica', 'DejaVu Sans', 'Bitstream Vera Sans', sans-serif; text-anchor: end" x="42.99" y="129.669344" transform="rotate(-0 42.99 129.669344)">26</text>
     </g>
    </g>
    <g id="ytick_32">
     <g id="line2d_40">
      <g>
       <use xlink:href="#m3a7f3b37f8" x="49.99" y="118.668603" style="stroke: #000000; stroke-width: 0.8"/>
      </g>
     </g>
     <g id="text_40">
      <text style="font-size: 9px; font-family: 'Arial', 'Helvetica', 'DejaVu Sans', 'Bitstream Vera Sans', sans-serif; text-anchor: end" x="42.99" y="121.889618" transform="rotate(-0 42.99 121.889618)">1</text>
     </g>
    </g>
    <g id="ytick_33">
     <g id="line2d_41">
      <g>
       <use xlink:href="#m3a7f3b37f8" x="49.99" y="110.888877" style="stroke: #000000; stroke-width: 0.8"/>
      </g>
     </g>
     <g id="text_41">
      <text style="font-size: 9px; font-family: 'Arial', 'Helvetica', 'DejaVu Sans', 'Bitstream Vera Sans', sans-serif; text-anchor: end" x="42.99" y="114.109892" transform="rotate(-0 42.99 114.109892)">31</text>
     </g>
    </g>
    <g id="ytick_34">
     <g id="line2d_42">
      <g>
       <use xlink:href="#m3a7f3b37f8" x="49.99" y="103.109151" style="stroke: #000000; stroke-width: 0.8"/>
      </g>
     </g>
     <g id="text_42">
      <text style="font-size: 9px; font-family: 'Arial', 'Helvetica', 'DejaVu Sans', 'Bitstream Vera Sans', sans-serif; text-anchor: end" x="42.99" y="106.330166" transform="rotate(-0 42.99 106.330166)">36</text>
     </g>
    </g>
    <g id="ytick_35">
     <g id="line2d_43">
      <g>
       <use xlink:href="#m3a7f3b37f8" x="49.99" y="95.329425" style="stroke: #000000; stroke-width: 0.8"/>
      </g>
     </g>
     <g id="text_43">
      <text style="font-size: 9px; font-family: 'Arial', 'Helvetica', 'DejaVu Sans', 'Bitstream Vera Sans', sans-serif; text-anchor: end" x="42.99" y="98.55044" transform="rotate(-0 42.99 98.55044)">34</text>
     </g>
    </g>
    <g id="ytick_36">
     <g id="line2d_44">
      <g>
       <use xlink:href="#m3a7f3b37f8" x="49.99" y="87.549699" style="stroke: #000000; stroke-width: 0.8"/>
      </g>
     </g>
     <g id="text_44">
      <text style="font-size: 9px; font-family: 'Arial', 'Helvetica', 'DejaVu Sans', 'Bitstream Vera Sans', sans-serif; text-anchor: end" x="42.99" y="90.770714" transform="rotate(-0 42.99 90.770714)">6</text>
     </g>
    </g>
    <g id="ytick_37">
     <g id="line2d_45">
      <g>
       <use xlink:href="#m3a7f3b37f8" x="49.99" y="79.769973" style="stroke: #000000; stroke-width: 0.8"/>
      </g>
     </g>
     <g id="text_45">
      <text style="font-size: 9px; font-family: 'Arial', 'Helvetica', 'DejaVu Sans', 'Bitstream Vera Sans', sans-serif; text-anchor: end" x="42.99" y="82.990988" transform="rotate(-0 42.99 82.990988)">11</text>
     </g>
    </g>
    <g id="ytick_38">
     <g id="line2d_46">
      <g>
       <use xlink:href="#m3a7f3b37f8" x="49.99" y="71.990247" style="stroke: #000000; stroke-width: 0.8"/>
      </g>
     </g>
     <g id="text_46">
      <text style="font-size: 9px; font-family: 'Arial', 'Helvetica', 'DejaVu Sans', 'Bitstream Vera Sans', sans-serif; text-anchor: end" x="42.99" y="75.211262" transform="rotate(-0 42.99 75.211262)">14</text>
     </g>
    </g>
    <g id="ytick_39">
     <g id="line2d_47">
      <g>
       <use xlink:href="#m3a7f3b37f8" x="49.99" y="64.210521" style="stroke: #000000; stroke-width: 0.8"/>
      </g>
     </g>
     <g id="text_47">
      <text style="font-size: 9px; font-family: 'Arial', 'Helvetica', 'DejaVu Sans', 'Bitstream Vera Sans', sans-serif; text-anchor: end" x="42.99" y="67.431536" transform="rotate(-0 42.99 67.431536)">32</text>
     </g>
    </g>
    <g id="ytick_40">
     <g id="line2d_48">
      <g>
       <use xlink:href="#m3a7f3b37f8" x="49.99" y="56.430795" style="stroke: #000000; stroke-width: 0.8"/>
      </g>
     </g>
     <g id="text_48">
      <text style="font-size: 9px; font-family: 'Arial', 'Helvetica', 'DejaVu Sans', 'Bitstream Vera Sans', sans-serif; text-anchor: end" x="42.99" y="59.65181" transform="rotate(-0 42.99 59.65181)">42</text>
     </g>
    </g>
    <g id="ytick_41">
     <g id="line2d_49">
      <g>
       <use xlink:href="#m3a7f3b37f8" x="49.99" y="48.651068" style="stroke: #000000; stroke-width: 0.8"/>
      </g>
     </g>
     <g id="text_49">
      <text style="font-size: 9px; font-family: 'Arial', 'Helvetica', 'DejaVu Sans', 'Bitstream Vera Sans', sans-serif; text-anchor: end" x="42.99" y="51.872084" transform="rotate(-0 42.99 51.872084)">39</text>
     </g>
    </g>
    <g id="ytick_42">
     <g id="line2d_50">
      <g>
       <use xlink:href="#m3a7f3b37f8" x="49.99" y="40.871342" style="stroke: #000000; stroke-width: 0.8"/>
      </g>
     </g>
     <g id="text_50">
      <text style="font-size: 9px; font-family: 'Arial', 'Helvetica', 'DejaVu Sans', 'Bitstream Vera Sans', sans-serif; text-anchor: end" x="42.99" y="44.092358" transform="rotate(-0 42.99 44.092358)">21</text>
     </g>
    </g>
    <g id="ytick_43">
     <g id="line2d_51">
      <g>
       <use xlink:href="#m3a7f3b37f8" x="49.99" y="33.091616" style="stroke: #000000; stroke-width: 0.8"/>
      </g>
     </g>
     <g id="text_51">
      <text style="font-size: 9px; font-family: 'Arial', 'Helvetica', 'DejaVu Sans', 'Bitstream Vera Sans', sans-serif; text-anchor: end" x="42.99" y="36.312632" transform="rotate(-0 42.99 36.312632)">17</text>
     </g>
    </g>
    <g id="ytick_44">
     <g id="line2d_52">
      <g>
       <use xlink:href="#m3a7f3b37f8" x="49.99" y="25.31189" style="stroke: #000000; stroke-width: 0.8"/>
      </g>
     </g>
     <g id="text_52">
      <text style="font-size: 9px; font-family: 'Arial', 'Helvetica', 'DejaVu Sans', 'Bitstream Vera Sans', sans-serif; text-anchor: end" x="42.99" y="28.532906" transform="rotate(-0 42.99 28.532906)">22</text>
     </g>
    </g>
    <g id="text_53">
     <text style="font-size: 9px; font-family: 'Arial', 'Helvetica', 'DejaVu Sans', 'Bitstream Vera Sans', sans-serif; text-anchor: middle" x="16.086094" y="192.576" transform="rotate(-90 16.086094 192.576)">leiden_0.5_1--scvi--strategy=lineage--batch=sample_id--n_hvgs=3000</text>
    </g>
   </g>
   <g id="patch_3">
    <path d="M 254.845664 362.952 
L 208.096226 362.952 
L 208.096226 356.728219 
L 254.845664 356.728219 
z
" clip-path="url(#p79dd38c150)" style="fill: #4682b4"/>
   </g>
   <g id="patch_4">
    <path d="M 254.845664 355.172274 
L 207.956491 355.172274 
L 207.956491 348.948493 
L 254.845664 348.948493 
z
" clip-path="url(#p79dd38c150)" style="fill: #4682b4"/>
   </g>
   <g id="patch_5">
    <path d="M 254.845664 347.392548 
L 206.337634 347.392548 
L 206.337634 341.168767 
L 254.845664 341.168767 
z
" clip-path="url(#p79dd38c150)" style="fill: #4682b4"/>
   </g>
   <g id="patch_6">
    <path d="M 254.845664 339.612822 
L 205.987434 339.612822 
L 205.987434 333.389041 
L 254.845664 333.389041 
z
" clip-path="url(#p79dd38c150)" style="fill: #4682b4"/>
   </g>
   <g id="patch_7">
    <path d="M 254.845664 331.833096 
L 205.483266 331.833096 
L 205.483266 325.609315 
L 254.845664 325.609315 
z
" clip-path="url(#p79dd38c150)" style="fill: #4682b4"/>
   </g>
   <g id="patch_8">
    <path d="M 254.845664 324.05337 
L 202.866807 324.05337 
L 202.866807 317.829589 
L 254.845664 317.829589 
z
" clip-path="url(#p79dd38c150)" style="fill: #4682b4"/>
   </g>
   <g id="patch_9">
    <path d="M 254.845664 316.273644 
L 202.089272 316.273644 
L 202.089272 310.049863 
L 254.845664 310.049863 
z
" clip-path="url(#p79dd38c150)" style="fill: #4682b4"/>
   </g>
   <g id="patch_10">
    <path d="M 254.845664 308.493918 
L 201.733934 308.493918 
L 201.733934 302.270137 
L 254.845664 302.270137 
z
" clip-path="url(#p79dd38c150)" style="fill: #4682b4"/>
   </g>
   <g id="patch_11">
    <path d="M 254.845664 300.714192 
L 201.621375 300.714192 
L 201.621375 294.490411 
L 254.845664 294.490411 
z
" clip-path="url(#p79dd38c150)" style="fill: #4682b4"/>
   </g>
   <g id="patch_12">
    <path d="M 254.845664 292.934466 
L 198.74377 292.934466 
L 198.74377 286.710685 
L 254.845664 286.710685 
z
" clip-path="url(#p79dd38c150)" style="fill: #4682b4"/>
   </g>
   <g id="patch_13">
    <path d="M 254.845664 285.15474 
L 198.600849 285.15474 
L 198.600849 278.930959 
L 254.845664 278.930959 
z
" clip-path="url(#p79dd38c150)" style="fill: #4682b4"/>
   </g>
   <g id="patch_14">
    <path d="M 254.845664 277.375014 
L 196.514012 277.375014 
L 196.514012 271.151233 
L 254.845664 271.151233 
z
" clip-path="url(#p79dd38c150)" style="fill: #4682b4"/>
   </g>
   <g id="patch_15">
    <path d="M 254.845664 269.595288 
L 196.083333 269.595288 
L 196.083333 263.371507 
L 254.845664 263.371507 
z
" clip-path="url(#p79dd38c150)" style="fill: #4682b4"/>
   </g>
   <g id="patch_16">
    <path d="M 254.845664 261.815562 
L 195.263912 261.815562 
L 195.263912 255.591781 
L 254.845664 255.591781 
z
" clip-path="url(#p79dd38c150)" style="fill: #4682b4"/>
   </g>
   <g id="patch_17">
    <path d="M 254.845664 254.035836 
L 194.998438 254.035836 
L 194.998438 247.812055 
L 254.845664 247.812055 
z
" clip-path="url(#p79dd38c150)" style="fill: #4682b4"/>
   </g>
   <g id="patch_18">
    <path d="M 254.845664 246.25611 
L 194.946255 246.25611 
L 194.946255 240.032329 
L 254.845664 240.032329 
z
" clip-path="url(#p79dd38c150)" style="fill: #4682b4"/>
   </g>
   <g id="patch_19">
    <path d="M 254.845664 238.476384 
L 194.376153 238.476384 
L 194.376153 232.252603 
L 254.845664 232.252603 
z
" clip-path="url(#p79dd38c150)" style="fill: #4682b4"/>
   </g>
   <g id="patch_20">
    <path d="M 254.845664 230.696658 
L 193.541603 230.696658 
L 193.541603 224.472877 
L 254.845664 224.472877 
z
" clip-path="url(#p79dd38c150)" style="fill: #4682b4"/>
   </g>
   <g id="patch_21">
    <path d="M 254.845664 222.916932 
L 192.40328 222.916932 
L 192.40328 216.693151 
L 254.845664 216.693151 
z
" clip-path="url(#p79dd38c150)" style="fill: #4682b4"/>
   </g>
   <g id="patch_22">
    <path d="M 254.845664 215.137205 
L 191.113625 215.137205 
L 191.113625 208.913425 
L 254.845664 208.913425 
z
" clip-path="url(#p79dd38c150)" style="fill: #4682b4"/>
   </g>
   <g id="patch_23">
    <path d="M 254.845664 207.357479 
L 190.82402 207.357479 
L 190.82402 201.133699 
L 254.845664 201.133699 
z
" clip-path="url(#p79dd38c150)" style="fill: #4682b4"/>
   </g>
   <g id="patch_24">
    <path d="M 254.845664 199.577753 
L 190.559522 199.577753 
L 190.559522 193.353973 
L 254.845664 193.353973 
z
" clip-path="url(#p79dd38c150)" style="fill: #4682b4"/>
   </g>
   <g id="patch_25">
    <path d="M 254.845664 191.798027 
L 190.281407 191.798027 
L 190.281407 185.574247 
L 254.845664 185.574247 
z
" clip-path="url(#p79dd38c150)" style="fill: #4682b4"/>
   </g>
   <g id="patch_26">
    <path d="M 254.845664 184.018301 
L 190.001179 184.018301 
L 190.001179 177.794521 
L 254.845664 177.794521 
z
" clip-path="url(#p79dd38c150)" style="fill: #4682b4"/>
   </g>
   <g id="patch_27">
    <path d="M 254.845664 176.238575 
L 189.035974 176.238575 
L 189.035974 170.014795 
L 254.845664 170.014795 
z
" clip-path="url(#p79dd38c150)" style="fill: #4682b4"/>
   </g>
   <g id="patch_28">
    <path d="M 254.845664 168.458849 
L 185.545312 168.458849 
L 185.545312 162.235068 
L 254.845664 162.235068 
z
" clip-path="url(#p79dd38c150)" style="fill: #4682b4"/>
   </g>
   <g id="patch_29">
    <path d="M 254.845664 160.679123 
L 184.408186 160.679123 
L 184.408186 154.455342 
L 254.845664 154.455342 
z
" clip-path="url(#p79dd38c150)" style="fill: #4682b4"/>
   </g>
   <g id="patch_30">
    <path d="M 254.845664 152.899397 
L 183.865849 152.899397 
L 183.865849 146.675616 
L 254.845664 146.675616 
z
" clip-path="url(#p79dd38c150)" style="fill: #4682b4"/>
   </g>
   <g id="patch_31">
    <path d="M 254.845664 145.119671 
L 183.826012 145.119671 
L 183.826012 138.89589 
L 254.845664 138.89589 
z
" clip-path="url(#p79dd38c150)" style="fill: #4682b4"/>
   </g>
   <g id="patch_32">
    <path d="M 254.845664 137.339945 
L 181.555276 137.339945 
L 181.555276 131.116164 
L 254.845664 131.116164 
z
" clip-path="url(#p79dd38c150)" style="fill: #4682b4"/>
   </g>
   <g id="patch_33">
    <path d="M 254.845664 129.560219 
L 180.781304 129.560219 
L 180.781304 123.336438 
L 254.845664 123.336438 
z
" clip-path="url(#p79dd38c150)" style="fill: #4682b4"/>
   </g>
   <g id="patch_34">
    <path d="M 254.845664 121.780493 
L 178.08134 121.780493 
L 178.08134 115.556712 
L 254.845664 115.556712 
z
" clip-path="url(#p79dd38c150)" style="fill: #4682b4"/>
   </g>
   <g id="patch_35">
    <path d="M 254.845664 114.000767 
L 174.414479 114.000767 
L 174.414479 107.776986 
L 254.845664 107.776986 
z
" clip-path="url(#p79dd38c150)" style="fill: #4682b4"/>
   </g>
   <g id="patch_36">
    <path d="M 254.845664 106.221041 
L 173.106815 106.221041 
L 173.106815 99.99726 
L 254.845664 99.99726 
z
" clip-path="url(#p79dd38c150)" style="fill: #4682b4"/>
   </g>
   <g id="patch_37">
    <path d="M 254.845664 98.441315 
L 172.687957 98.441315 
L 172.687957 92.217534 
L 254.845664 92.217534 
z
" clip-path="url(#p79dd38c150)" style="fill: #4682b4"/>
   </g>
   <g id="patch_38">
    <path d="M 254.845664 90.661589 
L 166.902616 90.661589 
L 166.902616 84.437808 
L 254.845664 84.437808 
z
" clip-path="url(#p79dd38c150)" style="fill: #4682b4"/>
   </g>
   <g id="patch_39">
    <path d="M 254.845664 82.881863 
L 165.922927 82.881863 
L 165.922927 76.658082 
L 254.845664 76.658082 
z
" clip-path="url(#p79dd38c150)" style="fill: #4682b4"/>
   </g>
   <g id="patch_40">
    <path d="M 254.845664 75.102137 
L 161.067707 75.102137 
L 161.067707 68.878356 
L 254.845664 68.878356 
z
" clip-path="url(#p79dd38c150)" style="fill: #4682b4"/>
   </g>
   <g id="patch_41">
    <path d="M 254.845664 67.322411 
L 159.845038 67.322411 
L 159.845038 61.09863 
L 254.845664 61.09863 
z
" clip-path="url(#p79dd38c150)" style="fill: #4682b4"/>
   </g>
   <g id="patch_42">
    <path d="M 254.845664 59.542685 
L 135.487316 59.542685 
L 135.487316 53.318904 
L 254.845664 53.318904 
z
" clip-path="url(#p79dd38c150)" style="fill: #4682b4"/>
   </g>
   <g id="patch_43">
    <path d="M 254.845664 51.762959 
L 134.008254 51.762959 
L 134.008254 45.539178 
L 254.845664 45.539178 
z
" clip-path="url(#p79dd38c150)" style="fill: #4682b4"/>
   </g>
   <g id="patch_44">
    <path d="M 254.845664 43.983233 
L 122.851614 43.983233 
L 122.851614 37.759452 
L 254.845664 37.759452 
z
" clip-path="url(#p79dd38c150)" style="fill: #4682b4"/>
   </g>
   <g id="patch_45">
    <path d="M 254.845664 36.203507 
L 120.594735 36.203507 
L 120.594735 29.979726 
L 254.845664 29.979726 
z
" clip-path="url(#p79dd38c150)" style="fill: #4682b4"/>
   </g>
   <g id="patch_46">
    <path d="M 254.845664 28.423781 
L 63.639545 28.423781 
L 63.639545 22.2 
L 254.845664 22.2 
z
" clip-path="url(#p79dd38c150)" style="fill: #4682b4"/>
   </g>
   <g id="patch_47">
    <path d="M 254.845664 362.952 
L 263.718908 362.952 
L 263.718908 356.728219 
L 254.845664 356.728219 
z
" clip-path="url(#p79dd38c150)" style="fill: #ff6347"/>
   </g>
   <g id="patch_48">
    <path d="M 254.845664 355.172274 
L 259.547788 355.172274 
L 259.547788 348.948493 
L 254.845664 348.948493 
z
" clip-path="url(#p79dd38c150)" style="fill: #ff6347"/>
   </g>
   <g id="patch_49">
    <path d="M 254.845664 347.392548 
L 260.956557 347.392548 
L 260.956557 341.168767 
L 254.845664 341.168767 
z
" clip-path="url(#p79dd38c150)" style="fill: #ff6347"/>
   </g>
   <g id="patch_50">
    <path d="M 254.845664 339.612822 
L 259.653267 339.612822 
L 259.653267 333.389041 
L 254.845664 333.389041 
z
" clip-path="url(#p79dd38c150)" style="fill: #ff6347"/>
   </g>
   <g id="patch_51">
    <path d="M 254.845664 331.833096 
L 263.018408 331.833096 
L 263.018408 325.609315 
L 254.845664 325.609315 
z
" clip-path="url(#p79dd38c150)" style="fill: #ff6347"/>
   </g>
   <g id="patch_52">
    <path d="M 254.845664 324.05337 
L 261.153541 324.05337 
L 261.153541 317.829589 
L 254.845664 317.829589 
z
" clip-path="url(#p79dd38c150)" style="fill: #ff6347"/>
   </g>
   <g id="patch_53">
    <path d="M 254.845664 316.273644 
L 259.790115 316.273644 
L 259.790115 310.049863 
L 254.845664 310.049863 
z
" clip-path="url(#p79dd38c150)" style="fill: #ff6347"/>
   </g>
   <g id="patch_54">
    <path d="M 254.845664 308.493918 
L 269.685183 308.493918 
L 269.685183 302.270137 
L 254.845664 302.270137 
z
" clip-path="url(#p79dd38c150)" style="fill: #ff6347"/>
   </g>
   <g id="patch_55">
    <path d="M 254.845664 300.714192 
L 273.009698 300.714192 
L 273.009698 294.490411 
L 254.845664 294.490411 
z
" clip-path="url(#p79dd38c150)" style="fill: #ff6347"/>
   </g>
   <g id="patch_56">
    <path d="M 254.845664 292.934466 
L 261.363653 292.934466 
L 261.363653 286.710685 
L 254.845664 286.710685 
z
" clip-path="url(#p79dd38c150)" style="fill: #ff6347"/>
   </g>
   <g id="patch_57">
    <path d="M 254.845664 285.15474 
L 262.7611 285.15474 
L 262.7611 278.930959 
L 254.845664 278.930959 
z
" clip-path="url(#p79dd38c150)" style="fill: #ff6347"/>
   </g>
   <g id="patch_58">
    <path d="M 254.845664 277.375014 
L 269.13769 277.375014 
L 269.13769 271.151233 
L 254.845664 271.151233 
z
" clip-path="url(#p79dd38c150)" style="fill: #ff6347"/>
   </g>
   <g id="patch_59">
    <path d="M 254.845664 269.595288 
L 260.200716 269.595288 
L 260.200716 263.371507 
L 254.845664 263.371507 
z
" clip-path="url(#p79dd38c150)" style="fill: #ff6347"/>
   </g>
   <g id="patch_60">
    <path d="M 254.845664 261.815562 
L 264.238182 261.815562 
L 264.238182 255.591781 
L 254.845664 255.591781 
z
" clip-path="url(#p79dd38c150)" style="fill: #ff6347"/>
   </g>
   <g id="patch_61">
    <path d="M 254.845664 254.035836 
L 267.505317 254.035836 
L 267.505317 247.812055 
L 254.845664 247.812055 
z
" clip-path="url(#p79dd38c150)" style="fill: #ff6347"/>
   </g>
   <g id="patch_62">
    <path d="M 254.845664 246.25611 
L 276.868894 246.25611 
L 276.868894 240.032329 
L 254.845664 240.032329 
z
" clip-path="url(#p79dd38c150)" style="fill: #ff6347"/>
   </g>
   <g id="patch_63">
    <path d="M 254.845664 238.476384 
L 273.184077 238.476384 
L 273.184077 232.252603 
L 254.845664 232.252603 
z
" clip-path="url(#p79dd38c150)" style="fill: #ff6347"/>
   </g>
   <g id="patch_64">
    <path d="M 254.845664 230.696658 
L 264.041223 230.696658 
L 264.041223 224.472877 
L 254.845664 224.472877 
z
" clip-path="url(#p79dd38c150)" style="fill: #ff6347"/>
   </g>
   <g id="patch_65">
    <path d="M 254.845664 222.916932 
L 267.974702 222.916932 
L 267.974702 216.693151 
L 254.845664 216.693151 
z
" clip-path="url(#p79dd38c150)" style="fill: #ff6347"/>
   </g>
   <g id="patch_66">
    <path d="M 254.845664 215.137205 
L 261.186234 215.137205 
L 261.186234 208.913425 
L 254.845664 208.913425 
z
" clip-path="url(#p79dd38c150)" style="fill: #ff6347"/>
   </g>
   <g id="patch_67">
    <path d="M 254.845664 207.357479 
L 267.378975 207.357479 
L 267.378975 201.133699 
L 254.845664 201.133699 
z
" clip-path="url(#p79dd38c150)" style="fill: #ff6347"/>
   </g>
   <g id="patch_68">
    <path d="M 254.845664 199.577753 
L 268.712465 199.577753 
L 268.712465 193.353973 
L 254.845664 193.353973 
z
" clip-path="url(#p79dd38c150)" style="fill: #ff6347"/>
   </g>
   <g id="patch_69">
    <path d="M 254.845664 191.798027 
L 267.702004 191.798027 
L 267.702004 185.574247 
L 254.845664 185.574247 
z
" clip-path="url(#p79dd38c150)" style="fill: #ff6347"/>
   </g>
   <g id="patch_70">
    <path d="M 254.845664 184.018301 
L 265.205766 184.018301 
L 265.205766 177.794521 
L 254.845664 177.794521 
z
" clip-path="url(#p79dd38c150)" style="fill: #ff6347"/>
   </g>
   <g id="patch_71">
    <path d="M 254.845664 176.238575 
L 261.901024 176.238575 
L 261.901024 170.014795 
L 254.845664 170.014795 
z
" clip-path="url(#p79dd38c150)" style="fill: #ff6347"/>
   </g>
   <g id="patch_72">
    <path d="M 254.845664 168.458849 
L 268.223986 168.458849 
L 268.223986 162.235068 
L 254.845664 162.235068 
z
" clip-path="url(#p79dd38c150)" style="fill: #ff6347"/>
   </g>
   <g id="patch_73">
    <path d="M 254.845664 160.679123 
L 274.201372 160.679123 
L 274.201372 154.455342 
L 254.845664 154.455342 
z
" clip-path="url(#p79dd38c150)" style="fill: #ff6347"/>
   </g>
   <g id="patch_74">
    <path d="M 254.845664 152.899397 
L 270.683653 152.899397 
L 270.683653 146.675616 
L 254.845664 146.675616 
z
" clip-path="url(#p79dd38c150)" style="fill: #ff6347"/>
   </g>
   <g id="patch_75">
    <path d="M 254.845664 145.119671 
L 272.545882 145.119671 
L 272.545882 138.89589 
L 254.845664 138.89589 
z
" clip-path="url(#p79dd38c150)" style="fill: #ff6347"/>
   </g>
   <g id="patch_76">
    <path d="M 254.845664 137.339945 
L 263.033814 137.339945 
L 263.033814 131.116164 
L 254.845664 131.116164 
z
" clip-path="url(#p79dd38c150)" style="fill: #ff6347"/>
   </g>
   <g id="patch_77">
    <path d="M 254.845664 129.560219 
L 273.511893 129.560219 
L 273.511893 123.336438 
L 254.845664 123.336438 
z
" clip-path="url(#p79dd38c150)" style="fill: #ff6347"/>
   </g>
   <g id="patch_78">
    <path d="M 254.845664 121.780493 
L 270.046974 121.780493 
L 270.046974 115.556712 
L 254.845664 115.556712 
z
" clip-path="url(#p79dd38c150)" style="fill: #ff6347"/>
   </g>
   <g id="patch_79">
    <path d="M 254.845664 114.000767 
L 268.742257 114.000767 
L 268.742257 107.776986 
L 254.845664 107.776986 
z
" clip-path="url(#p79dd38c150)" style="fill: #ff6347"/>
   </g>
   <g id="patch_80">
    <path d="M 254.845664 106.221041 
L 271.255905 106.221041 
L 271.255905 99.99726 
L 254.845664 99.99726 
z
" clip-path="url(#p79dd38c150)" style="fill: #ff6347"/>
   </g>
   <g id="patch_81">
    <path d="M 254.845664 98.441315 
L 268.718972 98.441315 
L 268.718972 92.217534 
L 254.845664 92.217534 
z
" clip-path="url(#p79dd38c150)" style="fill: #ff6347"/>
   </g>
   <g id="patch_82">
    <path d="M 254.845664 90.661589 
L 265.206017 90.661589 
L 265.206017 84.437808 
L 254.845664 84.437808 
z
" clip-path="url(#p79dd38c150)" style="fill: #ff6347"/>
   </g>
   <g id="patch_83">
    <path d="M 254.845664 82.881863 
L 269.988958 82.881863 
L 269.988958 76.658082 
L 254.845664 76.658082 
z
" clip-path="url(#p79dd38c150)" style="fill: #ff6347"/>
   </g>
   <g id="patch_84">
    <path d="M 254.845664 75.102137 
L 273.4316 75.102137 
L 273.4316 68.878356 
L 254.845664 68.878356 
z
" clip-path="url(#p79dd38c150)" style="fill: #ff6347"/>
   </g>
   <g id="patch_85">
    <path d="M 254.845664 67.322411 
L 263.728118 67.322411 
L 263.728118 61.09863 
L 254.845664 61.09863 
z
" clip-path="url(#p79dd38c150)" style="fill: #ff6347"/>
   </g>
   <g id="patch_86">
    <path d="M 254.845664 59.542685 
L 335.61492 59.542685 
L 335.61492 53.318904 
L 254.845664 53.318904 
z
" clip-path="url(#p79dd38c150)" style="fill: #ff6347"/>
   </g>
   <g id="patch_87">
    <path d="M 254.845664 51.762959 
L 264.490464 51.762959 
L 264.490464 45.539178 
L 254.845664 45.539178 
z
" clip-path="url(#p79dd38c150)" style="fill: #ff6347"/>
   </g>
   <g id="patch_88">
    <path d="M 254.845664 43.983233 
L 329.346854 43.983233 
L 329.346854 37.759452 
L 254.845664 37.759452 
z
" clip-path="url(#p79dd38c150)" style="fill: #ff6347"/>
   </g>
   <g id="patch_89">
    <path d="M 254.845664 36.203507 
L 320.103716 36.203507 
L 320.103716 29.979726 
L 254.845664 29.979726 
z
" clip-path="url(#p79dd38c150)" style="fill: #ff6347"/>
   </g>
   <g id="patch_90">
    <path d="M 254.845664 28.423781 
L 336.630455 28.423781 
L 336.630455 22.2 
L 254.845664 22.2 
z
" clip-path="url(#p79dd38c150)" style="fill: #ff6347"/>
   </g>
   <g id="line2d_53">
    <path d="M 254.845664 362.952 
L 254.845664 22.2 
" clip-path="url(#p79dd38c150)" style="fill: none; stroke: #000000; stroke-width: 0.8; stroke-linecap: square"/>
   </g>
   <g id="patch_91">
    <path d="M 49.99 362.952 
L 49.99 22.2 
" style="fill: none; stroke: #000000; stroke-width: 0.8; stroke-linejoin: miter; stroke-linecap: square"/>
   </g>
   <g id="patch_92">
    <path d="M 49.99 362.952 
L 350.28 362.952 
" style="fill: none; stroke: #000000; stroke-width: 0.8; stroke-linejoin: miter; stroke-linecap: square"/>
   </g>
   <g id="text_54">
    <text style="font-size: 9px; font-family: 'Arial', 'Helvetica', 'DejaVu Sans', 'Bitstream Vera Sans', sans-serif; text-anchor: middle; fill: #4682b4" x="125.0625" y="386.431631" transform="rotate(-0 125.0625 386.431631)">majority_consensus_disagreement</text>
   </g>
   <g id="text_55">
    <text style="font-size: 9px; font-family: 'Arial', 'Helvetica', 'DejaVu Sans', 'Bitstream Vera Sans', sans-serif; text-anchor: middle; fill: #ff6347" x="275.2075" y="386.431631" transform="rotate(-0 275.2075 386.431631)">scrublet_score</text>
   </g>
   <g id="text_56">
    <text style="font-size: 9px; font-family: 'Arial', 'Helvetica', 'DejaVu Sans', 'Bitstream Vera Sans', sans-serif; text-anchor: middle" x="200.135" y="16.2" transform="rotate(-0 200.135 16.2)">Label-based cluster disagreement</text>
   </g>
  </g>
 </g>
 <defs>
  <clipPath id="p79dd38c150">
   <rect x="49.99" y="22.2" width="300.29" height="340.752"/>
  </clipPath>
 </defs>
</svg>
