<?xml version="1.0" encoding="utf-8" standalone="no"?>
<!DOCTYPE svg PUBLIC "-//W3C//DTD SVG 1.1//EN"
  "http://www.w3.org/Graphics/SVG/1.1/DTD/svg11.dtd">
<svg xmlns:xlink="http://www.w3.org/1999/xlink" width="387.63pt" height="252pt" viewBox="0 0 387.63 252" xmlns="http://www.w3.org/2000/svg" version="1.1">
 <metadata>
  <rdf:RDF xmlns:dc="http://purl.org/dc/elements/1.1/" xmlns:cc="http://creativecommons.org/ns#" xmlns:rdf="http://www.w3.org/1999/02/22-rdf-syntax-ns#">
   <cc:Work>
    <dc:type rdf:resource="http://purl.org/dc/dcmitype/StillImage"/>
    <dc:date>2026-08-12T07:33:55.771004</dc:date>
    <dc:format>image/svg+xml</dc:format>
    <dc:creator>
     <cc:Agent>
      <dc:title>Matplotlib v3.10.5, https://matplotlib.org/</dc:title>
     </cc:Agent>
    </dc:creator>
   </cc:Work>
  </rdf:RDF>
 </metadata>
 <defs>
  <style type="text/css">*{stroke-linejoin: round; stroke-linecap: butt}</style>
 </defs>
 <g id="figure_1">
  <g id="patch_1">
   <path d="M 0 252 
L 387.63 252 
L 387.63 0 
L 0 0 
z
" style="fill: #ffffff"/>
  </g>
  <g id="axes_1">
   <g id="patch_2">
    <path d="M 64.349272 210.04 
L 284.1237 210.04 
L 284.1237 10.8 
L 64.349272 10.8 
z
" style="fill: #ffffff"/>
   </g>
   <g id="PathCollection_1">
    <path d="M 157.497134 61.785517 
C 158.434769 61.785517 159.334127 61.41299 159.997134 60.749983 
C 160.660142 60.086975 161.032668 59.187617 161.032668 58.249983 
C 161.032668 57.312348 160.660142 56.41299 159.997134 55.749983 
C 159.334127 55.086975 158.434769 54.714449 157.497134 54.714449 
C 156.5595 54.714449 155.660142 55.086975 154.997134 55.749983 
C 154.334127 56.41299 153.961601 57.312348 153.961601 58.249983 
C 153.961601 59.187617 154.334127 60.086975 154.997134 60.749983 
C 155.660142 61.41299 156.5595 61.785517 157.497134 61.785517 
z
" clip-path="url(#pd0ae83d92d)" style="fill: #440154; stroke: #ffffff; stroke-width: 0.565685"/>
    <path d="M 174.263253 51.623051 
C 175.503627 51.623051 176.693365 51.130245 177.570442 50.253169 
C 178.447519 49.376092 178.940324 48.186353 178.940324 46.945979 
C 178.940324 45.705605 178.447519 44.515867 177.570442 43.63879 
C 176.693365 42.761713 175.503627 42.268908 174.263253 42.268908 
C 173.022879 42.268908 171.83314 42.761713 170.956064 43.63879 
C 170.078987 44.515867 169.586181 45.705605 169.586181 46.945979 
C 169.586181 48.186353 170.078987 49.376092 170.956064 50.253169 
C 171.83314 51.130245 173.022879 51.623051 174.263253 51.623051 
z
" clip-path="url(#pd0ae83d92d)" style="fill: #3b528b; stroke: #ffffff; stroke-width: 0.565685"/>
    <path d="M 142.720525 73.380844 
C 144.203055 73.380844 145.625065 72.791829 146.673372 71.743521 
C 147.721679 70.695214 148.310695 69.273205 148.310695 67.790674 
C 148.310695 66.308144 147.721679 64.886135 146.673372 63.837827 
C 145.625065 62.78952 144.203055 62.200504 142.720525 62.200504 
C 141.237995 62.200504 139.815985 62.78952 138.767678 63.837827 
C 137.719371 64.886135 137.130355 66.308144 137.130355 67.790674 
C 137.130355 69.273205 137.719371 70.695214 138.767678 71.743521 
C 139.815985 72.791829 141.237995 73.380844 142.720525 73.380844 
z
" clip-path="url(#pd0ae83d92d)" style="fill: #21918c; stroke: #ffffff; stroke-width: 0.565685"/>
    <path d="M 155.171881 86.929347 
C 156.862226 86.929347 158.483566 86.257766 159.67882 85.062512 
C 160.874075 83.867257 161.545656 82.245917 161.545656 80.555572 
C 161.545656 78.865228 160.874075 77.243888 159.67882 76.048633 
C 158.483566 74.853379 156.862226 74.181798 155.171881 74.181798 
C 153.481537 74.181798 151.860196 74.853379 150.664942 76.048633 
C 149.469688 77.243888 148.798107 78.865228 148.798107 80.555572 
C 148.798107 82.245917 149.469688 83.867257 150.664942 85.062512 
C 151.860196 86.257766 153.481537 86.929347 155.171881 86.929347 
z
" clip-path="url(#pd0ae83d92d)" style="fill: #5ec962; stroke: #ffffff; stroke-width: 0.565685"/>
    <path d="M 143.857863 54.573863 
C 145.733132 54.573863 147.531847 53.828811 148.857863 52.502795 
C 150.183878 51.17678 150.92893 49.378064 150.92893 47.502795 
C 150.92893 45.627526 150.183878 43.828811 148.857863 42.502795 
C 147.531847 41.17678 145.733132 40.431727 143.857863 40.431727 
C 141.982593 40.431727 140.183878 41.17678 138.857863 42.502795 
C 137.531847 43.828811 136.786795 45.627526 136.786795 47.502795 
C 136.786795 49.378064 137.531847 51.17678 138.857863 52.502795 
C 140.183878 53.828811 141.982593 54.573863 143.857863 54.573863 
z
" clip-path="url(#pd0ae83d92d)" style="fill: #fde725; stroke: #ffffff; stroke-width: 0.565685"/>
    <path d="M 234.41342 170.024532 
L 236.181187 168.256765 
L 237.948954 170.024532 
L 239.716721 168.256765 
L 237.948954 166.488998 
L 239.716721 164.721231 
L 237.948954 162.953464 
L 236.181187 164.721231 
L 234.41342 162.953464 
L 232.645653 164.721231 
L 234.41342 166.488998 
L 232.645653 168.256765 
z
" clip-path="url(#pd0ae83d92d)" style="fill: #440154; stroke: #ffffff; stroke-width: 0.565685"/>
    <path d="M 216.169896 170.961727 
L 218.508432 168.623191 
L 220.846967 170.961727 
L 223.185503 168.623191 
L 220.846967 166.284655 
L 223.185503 163.946119 
L 220.846967 161.607583 
L 218.508432 163.946119 
L 216.169896 161.607583 
L 213.83136 163.946119 
L 216.169896 166.284655 
L 213.83136 168.623191 
z
" clip-path="url(#pd0ae83d92d)" style="fill: #3b528b; stroke: #ffffff; stroke-width: 0.565685"/>
    <path d="M 183.129036 169.545205 
L 185.924121 166.75012 
L 188.719206 169.545205 
L 191.51429 166.75012 
L 188.719206 163.955036 
L 191.51429 161.159951 
L 188.719206 158.364866 
L 185.924121 161.159951 
L 183.129036 158.364866 
L 180.333951 161.159951 
L 183.129036 163.955036 
L 180.333951 166.75012 
z
" clip-path="url(#pd0ae83d92d)" style="fill: #21918c; stroke: #ffffff; stroke-width: 0.565685"/>
    <path d="M 191.928006 181.763098 
L 195.114894 178.57621 
L 198.301781 181.763098 
L 201.488668 178.57621 
L 198.301781 175.389323 
L 201.488668 172.202436 
L 198.301781 169.015549 
L 195.114894 172.202436 
L 191.928006 169.015549 
L 188.741119 172.202436 
L 191.928006 175.389323 
L 188.741119 178.57621 
z
" clip-path="url(#pd0ae83d92d)" style="fill: #5ec962; stroke: #ffffff; stroke-width: 0.565685"/>
    <path d="M 168.116588 183.574418 
L 171.652122 180.038884 
L 175.187656 183.574418 
L 178.72319 180.038884 
L 175.187656 176.50335 
L 178.72319 172.967816 
L 175.187656 169.432282 
L 171.652122 172.967816 
L 168.116588 169.432282 
L 164.581054 172.967816 
L 168.116588 176.50335 
L 164.581054 180.038884 
z
" clip-path="url(#pd0ae83d92d)" style="fill: #fde725; stroke: #ffffff; stroke-width: 0.565685"/>
   </g>
   <g id="matplotlib.axis_1">
    <g id="xtick_1">
     <g id="line2d_1">
      <defs>
       <path id="ma16efcacf6" d="M 0 0 
L 0 3.5 
" style="stroke: #000000; stroke-width: 0.8"/>
      </defs>
      <g>
       <use xlink:href="#ma16efcacf6" x="82.663808" y="210.04" style="stroke: #000000; stroke-width: 0.8"/>
      </g>
     </g>
     <g id="text_1">
      <text style="font-size: 10px; font-family: 'DejaVu Sans', 'Bitstream Vera Sans', 'Computer Modern Sans Serif', 'Lucida Grande', 'Verdana', 'Geneva', 'Lucid', 'Arial', 'Helvetica', 'Avant Garde', sans-serif; text-anchor: middle" x="82.663808" y="224.638438" transform="rotate(-0 82.663808 224.638438)">0.0</text>
     </g>
    </g>
    <g id="xtick_2">
     <g id="line2d_2">
      <g>
       <use xlink:href="#ma16efcacf6" x="119.292879" y="210.04" style="stroke: #000000; stroke-width: 0.8"/>
      </g>
     </g>
     <g id="text_2">
      <text style="font-size: 10px; font-family: 'DejaVu Sans', 'Bitstream Vera Sans', 'Computer Modern Sans Serif', 'Lucida Grande', 'Verdana', 'Geneva', 'Lucid', 'Arial', 'Helvetica', 'Avant Garde', sans-serif; text-anchor: middle" x="119.292879" y="224.638438" transform="rotate(-0 119.292879 224.638438)">0.2</text>
     </g>
    </g>
    <g id="xtick_3">
     <g id="line2d_3">
      <g>
       <use xlink:href="#ma16efcacf6" x="155.92195" y="210.04" style="stroke: #000000; stroke-width: 0.8"/>
      </g>
     </g>
     <g id="text_3">
      <text style="font-size: 10px; font-family: 'DejaVu Sans', 'Bitstream Vera Sans', 'Computer Modern Sans Serif', 'Lucida Grande', 'Verdana', 'Geneva', 'Lucid', 'Arial', 'Helvetica', 'Avant Garde', sans-serif; text-anchor: middle" x="155.92195" y="224.638438" transform="rotate(-0 155.92195 224.638438)">0.4</text>
     </g>
    </g>
    <g id="xtick_4">
     <g id="line2d_4">
      <g>
       <use xlink:href="#ma16efcacf6" x="192.551022" y="210.04" style="stroke: #000000; stroke-width: 0.8"/>
      </g>
     </g>
     <g id="text_4">
      <text style="font-size: 10px; font-family: 'DejaVu Sans', 'Bitstream Vera Sans', 'Computer Modern Sans Serif', 'Lucida Grande', 'Verdana', 'Geneva', 'Lucid', 'Arial', 'Helvetica', 'Avant Garde', sans-serif; text-anchor: middle" x="192.551022" y="224.638438" transform="rotate(-0 192.551022 224.638438)">0.6</text>
     </g>
    </g>
    <g id="xtick_5">
     <g id="line2d_5">
      <g>
       <use xlink:href="#ma16efcacf6" x="229.180093" y="210.04" style="stroke: #000000; stroke-width: 0.8"/>
      </g>
     </g>
     <g id="text_5">
      <text style="font-size: 10px; font-family: 'DejaVu Sans', 'Bitstream Vera Sans', 'Computer Modern Sans Serif', 'Lucida Grande', 'Verdana', 'Geneva', 'Lucid', 'Arial', 'Helvetica', 'Avant Garde', sans-serif; text-anchor: middle" x="229.180093" y="224.638438" transform="rotate(-0 229.180093 224.638438)">0.8</text>
     </g>
    </g>
    <g id="xtick_6">
     <g id="line2d_6">
      <g>
       <use xlink:href="#ma16efcacf6" x="265.809164" y="210.04" style="stroke: #000000; stroke-width: 0.8"/>
      </g>
     </g>
     <g id="text_6">
      <text style="font-size: 10px; font-family: 'DejaVu Sans', 'Bitstream Vera Sans', 'Computer Modern Sans Serif', 'Lucida Grande', 'Verdana', 'Geneva', 'Lucid', 'Arial', 'Helvetica', 'Avant Garde', sans-serif; text-anchor: middle" x="265.809164" y="224.638438" transform="rotate(-0 265.809164 224.638438)">1.0</text>
     </g>
    </g>
    <g id="text_7">
     <text style="font-size: 10px; font-family: 'DejaVu Sans', 'Bitstream Vera Sans', 'Computer Modern Sans Serif', 'Lucida Grande', 'Verdana', 'Geneva', 'Lucid', 'Arial', 'Helvetica', 'Avant Garde', sans-serif; text-anchor: middle" x="174.236486" y="238.316563" transform="rotate(-0 174.236486 238.316563)">Bio conservation</text>
    </g>
   </g>
   <g id="matplotlib.axis_2">
    <g id="ytick_1">
     <g id="line2d_7">
      <defs>
       <path id="m1f05c07086" d="M 0 0 
L -3.5 0 
" style="stroke: #000000; stroke-width: 0.8"/>
      </defs>
      <g>
       <use xlink:href="#m1f05c07086" x="64.349272" y="193.436667" style="stroke: #000000; stroke-width: 0.8"/>
      </g>
     </g>
     <g id="text_8">
      <text style="font-size: 10px; font-family: 'DejaVu Sans', 'Bitstream Vera Sans', 'Computer Modern Sans Serif', 'Lucida Grande', 'Verdana', 'Geneva', 'Lucid', 'Arial', 'Helvetica', 'Avant Garde', sans-serif; text-anchor: end" x="57.349272" y="197.235885" transform="rotate(-0 57.349272 197.235885)">0.0</text>
     </g>
    </g>
    <g id="ytick_2">
     <g id="line2d_8">
      <g>
       <use xlink:href="#m1f05c07086" x="64.349272" y="160.23" style="stroke: #000000; stroke-width: 0.8"/>
      </g>
     </g>
     <g id="text_9">
      <text style="font-size: 10px; font-family: 'DejaVu Sans', 'Bitstream Vera Sans', 'Computer Modern Sans Serif', 'Lucida Grande', 'Verdana', 'Geneva', 'Lucid', 'Arial', 'Helvetica', 'Avant Garde', sans-serif; text-anchor: end" x="57.349272" y="164.029219" transform="rotate(-0 57.349272 164.029219)">0.2</text>
     </g>
    </g>
    <g id="ytick_3">
     <g id="line2d_9">
      <g>
       <use xlink:href="#m1f05c07086" x="64.349272" y="127.023333" style="stroke: #000000; stroke-width: 0.8"/>
      </g>
     </g>
     <g id="text_10">
      <text style="font-size: 10px; font-family: 'DejaVu Sans', 'Bitstream Vera Sans', 'Computer Modern Sans Serif', 'Lucida Grande', 'Verdana', 'Geneva', 'Lucid', 'Arial', 'Helvetica', 'Avant Garde', sans-serif; text-anchor: end" x="57.349272" y="130.822552" transform="rotate(-0 57.349272 130.822552)">0.4</text>
     </g>
    </g>
    <g id="ytick_4">
     <g id="line2d_10">
      <g>
       <use xlink:href="#m1f05c07086" x="64.349272" y="93.816667" style="stroke: #000000; stroke-width: 0.8"/>
      </g>
     </g>
     <g id="text_11">
      <text style="font-size: 10px; font-family: 'DejaVu Sans', 'Bitstream Vera Sans', 'Computer Modern Sans Serif', 'Lucida Grande', 'Verdana', 'Geneva', 'Lucid', 'Arial', 'Helvetica', 'Avant Garde', sans-serif; text-anchor: end" x="57.349272" y="97.615885" transform="rotate(-0 57.349272 97.615885)">0.6</text>
     </g>
    </g>
    <g id="ytick_5">
     <g id="line2d_11">
      <g>
       <use xlink:href="#m1f05c07086" x="64.349272" y="60.61" style="stroke: #000000; stroke-width: 0.8"/>
      </g>
     </g>
     <g id="text_12">
      <text style="font-size: 10px; font-family: 'DejaVu Sans', 'Bitstream Vera Sans', 'Computer Modern Sans Serif', 'Lucida Grande', 'Verdana', 'Geneva', 'Lucid', 'Arial', 'Helvetica', 'Avant Garde', sans-serif; text-anchor: end" x="57.349272" y="64.409219" transform="rotate(-0 57.349272 64.409219)">0.8</text>
     </g>
    </g>
    <g id="ytick_6">
     <g id="line2d_12">
      <g>
       <use xlink:href="#m1f05c07086" x="64.349272" y="27.403333" style="stroke: #000000; stroke-width: 0.8"/>
      </g>
     </g>
     <g id="text_13">
      <text style="font-size: 10px; font-family: 'DejaVu Sans', 'Bitstream Vera Sans', 'Computer Modern Sans Serif', 'Lucida Grande', 'Verdana', 'Geneva', 'Lucid', 'Arial', 'Helvetica', 'Avant Garde', sans-serif; text-anchor: end" x="57.349272" y="31.202552" transform="rotate(-0 57.349272 31.202552)">1.0</text>
     </g>
    </g>
    <g id="text_14">
     <text style="font-size: 10px; font-family: 'DejaVu Sans', 'Bitstream Vera Sans', 'Computer Modern Sans Serif', 'Lucida Grande', 'Verdana', 'Geneva', 'Lucid', 'Arial', 'Helvetica', 'Avant Garde', sans-serif; text-anchor: middle" x="35.366459" y="110.42" transform="rotate(-90 35.366459 110.42)">Batch correction</text>
    </g>
   </g>
   <g id="line2d_13"/>
   <g id="line2d_14"/>
   <g id="line2d_15"/>
   <g id="line2d_16"/>
   <g id="line2d_17"/>
   <g id="line2d_18"/>
   <g id="line2d_19"/>
   <g id="line2d_20"/>
   <g id="line2d_21"/>
   <g id="patch_3">
    <path d="M 64.349272 210.04 
L 64.349272 10.8 
" style="fill: none; stroke: #000000; stroke-width: 0.8; stroke-linejoin: miter; stroke-linecap: square"/>
   </g>
   <g id="patch_4">
    <path d="M 64.349272 210.04 
L 284.1237 210.04 
" style="fill: none; stroke: #000000; stroke-width: 0.8; stroke-linejoin: miter; stroke-linecap: square"/>
   </g>
  </g>
  <g id="legend_1">
   <g id="line2d_22"/>
   <g id="text_15">
    <text style="font-size: 10px; font-family: 'DejaVu Sans', 'Bitstream Vera Sans', 'Computer Modern Sans Serif', 'Lucida Grande', 'Verdana', 'Geneva', 'Lucid', 'Arial', 'Helvetica', 'Avant Garde', sans-serif; text-anchor: start" x="314.812812" y="69.907813" transform="rotate(-0 314.812812 69.907813)">n_top_genes</text>
   </g>
   <g id="line2d_23">
    <defs>
     <path id="m8e35609547" d="M 0 3.535534 
C 0.937635 3.535534 1.836992 3.163008 2.5 2.5 
C 3.163008 1.836992 3.535534 0.937635 3.535534 0 
C 3.535534 -0.937635 3.163008 -1.836992 2.5 -2.5 
C 1.836992 -3.163008 0.937635 -3.535534 0 -3.535534 
C -0.937635 -3.535534 -1.836992 -3.163008 -2.5 -2.5 
C -3.163008 -1.836992 -3.535534 -0.937635 -3.535534 0 
C -3.535534 0.937635 -3.163008 1.836992 -2.5 2.5 
C -1.836992 3.163008 -0.937635 3.535534 0 3.535534 
z
"/>
    </defs>
    <g>
     <use xlink:href="#m8e35609547" x="296.812812" y="81.364062" style="fill: #440154"/>
    </g>
   </g>
   <g id="text_16">
    <text style="font-size: 10px; font-family: 'DejaVu Sans', 'Bitstream Vera Sans', 'Computer Modern Sans Serif', 'Lucida Grande', 'Verdana', 'Geneva', 'Lucid', 'Arial', 'Helvetica', 'Avant Garde', sans-serif; text-anchor: start" x="314.812812" y="84.864062" transform="rotate(-0 314.812812 84.864062)">3000</text>
   </g>
   <g id="line2d_24">
    <defs>
     <path id="m95f12be58c" d="M 0 4.677072 
C 1.240374 4.677072 2.430112 4.184266 3.307189 3.307189 
C 4.184266 2.430112 4.677072 1.240374 4.677072 0 
C 4.677072 -1.240374 4.184266 -2.430112 3.307189 -3.307189 
C 2.430112 -4.184266 1.240374 -4.677072 0 -4.677072 
C -1.240374 -4.677072 -2.430112 -4.184266 -3.307189 -3.307189 
C -4.184266 -2.430112 -4.677072 -1.240374 -4.677072 0 
C -4.677072 1.240374 -4.184266 2.430112 -3.307189 3.307189 
C -2.430112 4.184266 -1.240374 4.677072 0 4.677072 
z
"/>
    </defs>
    <g>
     <use xlink:href="#m95f12be58c" x="296.812812" y="96.042188" style="fill: #3b528b"/>
    </g>
   </g>
   <g id="text_17">
    <text style="font-size: 10px; font-family: 'DejaVu Sans', 'Bitstream Vera Sans', 'Computer Modern Sans Serif', 'Lucida Grande', 'Verdana', 'Geneva', 'Lucid', 'Arial', 'Helvetica', 'Avant Garde', sans-serif; text-anchor: start" x="314.812812" y="99.542188" transform="rotate(-0 314.812812 99.542188)">4000</text>
   </g>
   <g id="line2d_25">
    <defs>
     <path id="m34d07b8402" d="M 0 5.59017 
C 1.48253 5.59017 2.90454 5.001154 3.952847 3.952847 
C 5.001154 2.90454 5.59017 1.48253 5.59017 0 
C 5.59017 -1.48253 5.001154 -2.90454 3.952847 -3.952847 
C 2.90454 -5.001154 1.48253 -5.59017 0 -5.59017 
C -1.48253 -5.59017 -2.90454 -5.001154 -3.952847 -3.952847 
C -5.001154 -2.90454 -5.59017 -1.48253 -5.59017 0 
C -5.59017 1.48253 -5.001154 2.90454 -3.952847 3.952847 
C -2.90454 5.001154 -1.48253 5.59017 0 5.59017 
z
"/>
    </defs>
    <g>
     <use xlink:href="#m34d07b8402" x="296.812812" y="110.720313" style="fill: #21918c"/>
    </g>
   </g>
   <g id="text_18">
    <text style="font-size: 10px; font-family: 'DejaVu Sans', 'Bitstream Vera Sans', 'Computer Modern Sans Serif', 'Lucida Grande', 'Verdana', 'Geneva', 'Lucid', 'Arial', 'Helvetica', 'Avant Garde', sans-serif; text-anchor: start" x="314.812812" y="114.220313" transform="rotate(-0 314.812812 114.220313)">5000</text>
   </g>
   <g id="line2d_26">
    <defs>
     <path id="m004a235f8e" d="M 0 6.373774 
C 1.690345 6.373774 3.311685 5.702193 4.506939 4.506939 
C 5.702193 3.311685 6.373774 1.690345 6.373774 0 
C 6.373774 -1.690345 5.702193 -3.311685 4.506939 -4.506939 
C 3.311685 -5.702193 1.690345 -6.373774 0 -6.373774 
C -1.690345 -6.373774 -3.311685 -5.702193 -4.506939 -4.506939 
C -5.702193 -3.311685 -6.373774 -1.690345 -6.373774 0 
C -6.373774 1.690345 -5.702193 3.311685 -4.506939 4.506939 
C -3.311685 5.702193 -1.690345 6.373774 0 6.373774 
z
"/>
    </defs>
    <g>
     <use xlink:href="#m004a235f8e" x="296.812812" y="125.398438" style="fill: #5ec962"/>
    </g>
   </g>
   <g id="text_19">
    <text style="font-size: 10px; font-family: 'DejaVu Sans', 'Bitstream Vera Sans', 'Computer Modern Sans Serif', 'Lucida Grande', 'Verdana', 'Geneva', 'Lucid', 'Arial', 'Helvetica', 'Avant Garde', sans-serif; text-anchor: start" x="314.812812" y="128.898438" transform="rotate(-0 314.812812 128.898438)">6000</text>
   </g>
   <g id="line2d_27">
    <defs>
     <path id="m8606e21e00" d="M 0 7.071068 
C 1.875269 7.071068 3.673985 6.326016 5 5 
C 6.326016 3.673985 7.071068 1.875269 7.071068 0 
C 7.071068 -1.875269 6.326016 -3.673985 5 -5 
C 3.673985 -6.326016 1.875269 -7.071068 0 -7.071068 
C -1.875269 -7.071068 -3.673985 -6.326016 -5 -5 
C -6.326016 -3.673985 -7.071068 -1.875269 -7.071068 0 
C -7.071068 1.875269 -6.326016 3.673985 -5 5 
C -3.673985 6.326016 -1.875269 7.071068 0 7.071068 
z
"/>
    </defs>
    <g>
     <use xlink:href="#m8606e21e00" x="296.812812" y="140.076563" style="fill: #fde725"/>
    </g>
   </g>
   <g id="text_20">
    <text style="font-size: 10px; font-family: 'DejaVu Sans', 'Bitstream Vera Sans', 'Computer Modern Sans Serif', 'Lucida Grande', 'Verdana', 'Geneva', 'Lucid', 'Arial', 'Helvetica', 'Avant Garde', sans-serif; text-anchor: start" x="314.812812" y="143.576563" transform="rotate(-0 314.812812 143.576563)">7000</text>
   </g>
   <g id="line2d_28"/>
   <g id="text_21">
    <text style="font-size: 10px; font-family: 'DejaVu Sans', 'Bitstream Vera Sans', 'Computer Modern Sans Serif', 'Lucida Grande', 'Verdana', 'Geneva', 'Lucid', 'Arial', 'Helvetica', 'Avant Garde', sans-serif; text-anchor: start" x="314.812812" y="158.254688" transform="rotate(-0 314.812812 158.254688)">strategy</text>
   </g>
   <g id="line2d_29">
    <defs>
     <path id="m75d8941118" d="M 0 3 
C 0.795609 3 1.55874 2.683901 2.12132 2.12132 
C 2.683901 1.55874 3 0.795609 3 0 
C 3 -0.795609 2.683901 -1.55874 2.12132 -2.12132 
C 1.55874 -2.683901 0.795609 -3 0 -3 
C -0.795609 -3 -1.55874 -2.683901 -2.12132 -2.12132 
C -2.683901 -1.55874 -3 -0.795609 -3 0 
C -3 0.795609 -2.683901 1.55874 -2.12132 2.12132 
C -1.55874 2.683901 -0.795609 3 0 3 
z
"/>
    </defs>
    <g>
     <use xlink:href="#m75d8941118" x="296.812812" y="169.432813" style="fill: #333333"/>
    </g>
   </g>
   <g id="text_22">
    <text style="font-size: 10px; font-family: 'DejaVu Sans', 'Bitstream Vera Sans', 'Computer Modern Sans Serif', 'Lucida Grande', 'Verdana', 'Geneva', 'Lucid', 'Arial', 'Helvetica', 'Avant Garde', sans-serif; text-anchor: start" x="314.812812" y="172.932813" transform="rotate(-0 314.812812 172.932813)">custom hvgs</text>
   </g>
   <g id="line2d_30">
    <defs>
     <path id="mc7a53e766e" d="M -1.5 3 
L 0 1.5 
L 1.5 3 
L 3 1.5 
L 1.5 0 
L 3 -1.5 
L 1.5 -3 
L 0 -1.5 
L -1.5 -3 
L -3 -1.5 
L -1.5 0 
L -3 1.5 
z
"/>
    </defs>
    <g>
     <use xlink:href="#mc7a53e766e" x="296.812812" y="184.110938" style="fill: #333333"/>
    </g>
   </g>
   <g id="text_23">
    <text style="font-size: 10px; font-family: 'DejaVu Sans', 'Bitstream Vera Sans', 'Computer Modern Sans Serif', 'Lucida Grande', 'Verdana', 'Geneva', 'Lucid', 'Arial', 'Helvetica', 'Avant Garde', sans-serif; text-anchor: start" x="314.812812" y="187.610938" transform="rotate(-0 314.812812 187.610938)">default hvgs</text>
   </g>
  </g>
 </g>
 <defs>
  <clipPath id="pd0ae83d92d">
   <rect x="64.349272" y="10.8" width="219.774428" height="199.24"/>
  </clipPath>
 </defs>
</svg>
